<svg xmlns="http://www.w3.org/2000/svg" version="1.1" xmlns:xlink="http://www.w3.org/1999/xlink" viewBox="0 0 15.678991628838276 5.720935783553754"><g transform="matrix(1,0,0,1,6.285005683600068,1.863436641776877)"><g clip-path="url(#SvgjsClipPath1001)"><g clip-path="url(#SvgjsClipPath100028dc1863-a143-47e5-b12f-986078e5cdcb)"><path d=" M -4.851453844622453 0.2680098452977333 C -5.073448206874873 0.39522498919475146 -5.150289339218666 0.6783105480842726 -5.0230868530296995 0.9003121634296174 C -4.895884366840747 1.122313778774962 -4.612803189679092 1.1991710517452812 -4.390794321962534 1.071981223677907 C -4.168785454245975 0.9447913956105323 -4.09191204089899 0.6617146010970112 -4.219089210431274 0.4396984817309917 C -4.280046412569137 0.3329334394469061 -4.380991939609242 0.25482137792809545 -4.49963803232621 0.22260865638215166 C -4.6182841250431625 0.19039593483620054 -4.744872546813806 0.20673193978670001 -4.851453844622453 0.2680098452977333 Z" fill="#c08c46" transform="matrix(1,0,0,1,0,0)" fill-rule="evenodd"></path></g><g clip-path="url(#SvgjsClipPath100028dc1863-a143-47e5-b12f-986078e5cdcb)"><path d=" M -3.093283571529275 2.396424696958821 L -3.367199029655605 1.9219873962806733 C -3.3754063881301493 1.9077617675152996 -3.382843833345607 1.8931056254730718 -3.3894792343835918 1.878082286963774 L -3.3894792343835918 1.878082286963774 L -3.3894792343835918 1.878082286963774 L -3.3894792343835918 1.878082286963774 L -3.3894792343835918 1.8748057862684808 L -3.3894792343835918 1.8748057862684808 L -3.3894792343835918 1.8748057862684808 L -3.3894792343835918 1.871529285573187 L -3.3894792343835918 1.8682527848778938 L -3.3894792343835918 1.8682527848778938 L -3.3894792343835918 1.8682527848778938 L -3.3894792343835918 1.8649762841826072 L -3.3894792343835918 1.8649762841826072 L -3.3894792343835918 1.8649762841826072 L -3.3894792343835918 1.861699783487314 L -3.3894792343835918 1.861699783487314 L -3.3894792343835918 1.861699783487314 L -3.3894792343835918 1.8584232827920206 L -3.3894792343835918 1.8544914819576666 L -3.3894792343835918 1.8544914819576666 L -3.3894792343835918 1.8544914819576666 L -3.3894792343835918 1.8512149812623733 L -3.3894792343835918 1.8472831804280267 L -3.3894792343835918 1.8440066797327335 L -3.3894792343835918 1.8440066797327335 L -3.3894792343835918 1.8440066797327335 L -3.3894792343835918 1.8440066797327335 L -3.3894792343835918 1.840074878898387 L -3.3894792343835918 1.8361430780640333 L -3.3894792343835918 1.83286657736874 L -3.3894792343835918 1.8014121706939616 L -3.3894792343835918 1.8014121706939616 L -3.3894792343835918 1.8014121706939616 L -3.3894792343835918 1.8014121706939616 L -3.3894792343835918 1.7974803698596151 L -3.3894792343835918 1.7942038691643218 L -3.3894792343835918 1.7942038691643218 L -3.3894792343835918 1.7902720683299682 L -3.3894792343835918 1.7863402674956217 L -3.3894792343835918 1.7863402674956217 L -3.3894792343835918 1.7863402674956217 L -3.3894792343835918 1.782408466661268 L -3.3894792343835918 1.7706130641582218 L -3.3894792343835918 1.7706130641582218 L -3.3894792343835918 1.7666812633238753 L -3.3894792343835918 1.7627494624895217 L -3.3894792343835918 1.7424351581787225 L -3.3894792343835918 1.7424351581787225 L -3.3894792343835918 1.733916256370962 L -3.3894792343835918 1.733916256370962 L -3.3894792343835918 1.7142572521992157 L -3.3894792343835918 1.7142572521992157 L -3.3894792343835918 1.6900111470540629 L -3.3894792343835918 1.6900111470540629 L -3.3894792343835918 1.6592120405183302 L -3.3894792343835918 1.6592120405183302 L -3.3894792343835918 1.0805820177299235 C -3.3886759218088485 1.0130793097234405 -3.4058660447820452 0.9465806761165756 -3.439282044952018 0.8879237768468131 C -3.473467499001059 0.8298369898772502 -3.5222676740197834 0.7817145950671021 -3.580826874988575 0.7483448472274077 L -3.84294693061188 0.5989364155221362 L -4.096548084427396 1.0386428088301973 C -4.1713285164760645 1.1720766743240563 -4.31319349585918 1.2538251110253182 -4.466137362856232 1.2516153540241217 L -5.014623579247958 1.2516153540241217 C -5.267962162706597 1.2516153649194477 -5.473333656589592 1.4569868674148463 -5.473333656860972 1.7103254508734786 C -5.473333657132353 1.963664034332111 -5.267962163689379 2.1690355372675145 -5.01462358023074 2.169035548705617 L -4.465482062717179 2.169035548705617 C -4.312399595272451 2.1669573926095786 -4.170501222331523 2.248976664912322 -4.095892784288358 2.3826633940386013 L -3.82132202602296 2.857755994855802 C -3.668626007414315 2.9753618481953104 -3.4586990331781204 2.9849723774410735 -3.2958961767069064 2.8818101713602955 C -3.1330933202356777 2.778647965279525 -3.0521421237872732 2.5847185952039156 -3.093283571529275 2.396424696958821 Z" fill="#c08c46" transform="matrix(1,0,0,1,0,0)" fill-rule="evenodd"></path></g><g clip-path="url(#SvgjsClipPath100028dc1863-a143-47e5-b12f-986078e5cdcb)"><path d=" M -2.819368113402931 2.413462500574334 L -2.5447973551375487 1.9390251998961867 C -2.5275208876123587 1.9085386191529614 -2.5136751306908174 1.8762318530026754 -2.503513446376868 1.8426960794546274 L -2.503513446376868 1.8426960794546274 L -2.503513446376868 1.8426960794546274 L -2.503513446376868 1.8426960794546274 L -2.503513446376868 1.8367983782031079 L -2.503513446376868 1.8335218775078146 L -2.503513446376868 1.8335218775078146 L -2.503513446376868 1.8302453768125209 L -2.503513446376868 1.8302453768125209 L -2.503513446376868 1.8269688761172276 L -2.503513446376868 1.8269688761172276 L -2.503513446376868 1.8236923754219343 L -2.503513446376868 1.8236923754219343 L -2.503513446376868 1.8236923754219343 L -2.503513446376868 1.8236923754219343 L -2.503513446376868 1.8204158747266406 L -2.503513446376868 1.8204158747266406 L -2.503513446376868 1.8204158747266406 L -2.503513446376868 1.8171393740313473 L -2.4995816455425217 1.8046886713892478 L -2.4995816455425217 1.8014121706939545 L -2.4995816455425217 1.8014121706939545 L -2.4995816455425217 1.8014121706939545 L -2.4995816455425217 1.8014121706939545 L -2.4995816455425217 1.7974803698596005 L -2.4995816455425217 1.7974803698596005 L -2.4995816455425217 1.7883061679127876 L -2.4995816455425217 1.7883061679127876 L -2.4995816455425217 1.7752001651316207 L -2.4995816455425217 1.7752001651316207 L -2.4995816455425217 1.7647153629066876 L -2.4995816455425217 1.7647153629066876 L -2.4995816455425217 1.7457116588740011 L -2.4995816455425217 1.7457116588740011 L -2.4995816455425217 1.716878452755442 L -2.4995816455425217 1.716878452755442 L -2.4995816455425217 1.6703521428823165 L -2.4995816455425217 1.6703521428823165 L -2.4995816455425217 1.6402083364856366 L -2.4995816455425217 1.6402083364856366 L -2.4995816455425217 1.0805820177299235 C -2.501739127672073 0.943248049451741 -2.428219866350653 0.8158482336002628 -2.308234004937524 0.7490001473664678 L -2.056598751539167 0.6035235164955428 L -1.7944786959158763 1.0563359125847707 C -1.7193749036792507 1.1897697469078796 -1.5773369670053041 1.2714729848176805 -1.4242341173479875 1.269308457778695 L -0.8757479009562612 1.269308457778695 C -0.6224093174976213 1.269308468674021 -0.4170378236146419 1.4746799711694192 -0.41703782334324657 1.7280185546280515 C -0.4170378230718663 1.9813571380866843 -0.6224093165148545 2.186728641022088 -0.8757478999734793 2.18672865246019 L -1.4248894174870408 2.18672865246019 C -1.5778332844840919 2.184518895458994 -1.7196982638672074 2.2662673321602558 -1.7944786959158763 2.3997011976541147 L -2.068394154042206 2.8747937984713223 C -2.219449676586538 3.0123336874638844 -2.44325660052668 3.0334025914975453 -2.617326494161611 2.9264696027375243 C -2.791396387796542 2.8195366139774967 -2.8737714092799647 2.610376881341562 -2.819368113402931 2.413462500574334 Z" fill="#d56a34" transform="matrix(1,0,0,1,0,0)" fill-rule="evenodd"></path></g><g clip-path="url(#SvgjsClipPath100028dc1863-a143-47e5-b12f-986078e5cdcb)"><path d=" M -1.0618531404488065 0.2843923487741935 C -0.8990457150122451 0.3772730830470299 -0.8082438054491456 0.5591021921698003 -0.8318080483068027 0.7450533014294405 C -0.8553722911644597 0.9310044106890736 -0.9886594131058866 1.0844363331473836 -1.1694887027764613 1.1337704650803309 C -1.350317992447036 1.1831045970132776 -1.5430575042611943 1.11861977484305 -1.6577909749207018 0.9703992658479512 C -1.7725244455802094 0.82217875685286 -1.7866439403261167 0.6194290304096306 -1.6935624745009181 0.4567362853465047 C -1.5666077412739647 0.2348380388552065 -1.2839078006373503 0.15771139529978084 -1.0618531404488065 0.2843923487741935 Z" fill="#d56a34" transform="matrix(1,0,0,1,0,0)" fill-rule="evenodd"></path></g><g clip-path="url(#SvgjsClipPath100028dc1863-a143-47e5-b12f-986078e5cdcb)"><path d=" M -2.5441420549984812 1.6264470335654169 L -2.5441420549984812 1.0805820177299235 C -2.544694661623142 0.9978995501041941 -2.523448551650838 0.9165314693592506 -2.482543841927016 0.8446739676689592 C -2.4409619555215416 0.7731853562159128 -2.381002036281671 0.714130492360795 -2.308889305076577 0.6736406313747683 L -1.8337967042593837 0.3997251732484386 C -1.691198157424036 0.3244090661293273 -1.6141876445800545 0.16507697059004456 -1.6437596639324918 0.00654508981351376 C -1.6527922400121957 -0.05122791505743152 -1.672574414650894 -0.10679582134590315 -1.7020813763086782 -0.15727994495104458 C -1.7313934825339792 -0.20744007853937418 -1.7695857357343647 -0.2518496752839998 -1.81479300022669 -0.28833997276268986 C -1.93718861977929 -0.3916882077324736 -2.112415582156509 -0.4038825197889768 -2.2479463921441645 -0.3184837791593732 L -2.7223836928223193 -0.04456832103303632 C -2.8672755879906036 0.04199090648677939 -3.0479972974978433 0.04199090648677939 -3.1928891926661276 -0.04456832103303632 L -3.667981793483321 -0.31848377915936965 C -3.8032232369531163 -0.4037428659472354 -3.978062475156718 -0.3918220087969918 -4.100479885261742 -0.2889952729017463 C -4.145707582509032 -0.25252606048364945 -4.183903309021139 -0.20811242500445004 -4.213191509179769 -0.15793524509010115 C -4.242621419060345 -0.10711963074371544 -4.262603002590966 -0.05139321445276113 -4.272168521694994 0.006545089813506433 C -4.301848108860272 0.16526115754577764 -4.2244888242492555 0.32476483715612936 -4.081476181229063 0.3997251732484386 L -3.6063835804118556 0.6742959315138284 C -3.534404921252793 0.7149638602001955 -3.4744869380726913 0.7739774209926675 -3.432729043561431 0.8453292678080266 C -3.391828136811159 0.9174263233152944 -3.370586382899201 0.9990036973814984 -3.3711308304899656 1.0818926180080366 L -3.3711308304899656 1.6303788343997634 C -3.3774376031074045 1.790348679526054 -3.2793124188757683 1.9359452366697645 -3.1286697790384217 1.9901386107427257 C -3.0183470413548914 2.0312153039178282 -2.8969258441335555 2.0312153039178282 -2.786603106450025 1.9901386107427257 C -2.634799371297999 1.9351612448405686 -2.5365043407727748 1.7877186990527316 -2.5441420549984812 1.6264470335654169 Z" fill="#3f170e" transform="matrix(1,0,0,1,0,0)" fill-rule="evenodd"></path></g><g clip-path="url(#SvgjsClipPath100028dc1863-a143-47e5-b12f-986078e5cdcb)"><path d=" M -2.956325842466103 -1.0943591438042932 C -3.143998849020988 -1.0962166062069865 -3.3142517708370467 -0.9846652045312464 -3.387484067957278 -0.8118600014428623 C -3.460716365077524 -0.6390547983544745 -3.4224584118859043 -0.4391395622659837 -3.290597441677544 -0.30558323672638776 C -3.158736471469198 -0.1720269111867918 -2.95932627399689 -0.1312182632456661 -2.7855996656047592 -0.20223708534579898 C -2.611873057212614 -0.27325590744593187 -2.4981558624593347 -0.4420699241038264 -2.4976157451253482 -0.6297513452120153 C -2.4960383500222716 -0.7524274575909476 -2.543669340074005 -0.8706230290985193 -2.6298657323001504 -0.9579276606532956 C -2.7160621245263106 -1.0452322922080683 -2.8336395896873947 -1.0943692846231838 -2.956325842466103 -1.0943591438042932 Z" fill="#3f170e" transform="matrix(1,0,0,1,0,0)" fill-rule="evenodd"></path></g></g><g><path d=" M 0.114 1.0845000000000002 L 0.114 0.05550000000000033 L 0.3375 0.05550000000000033 L 0.3375 0.46350000000000025 L 0.7935 0.46350000000000025 L 0.7935 0.05550000000000033 L 1.0170000000000001 0.05550000000000033 L 1.0170000000000001 1.0845000000000002 L 0.7935 1.0845000000000002 L 0.7935 0.6525000000000003 L 0.3375 0.6525000000000003 L 0.3375 1.0845000000000002 L 0.114 1.0845000000000002 M 1.43554248046875 1.1025000000000003 Q 1.39654248046875 1.1025000000000003 1.35229248046875 1.0935000000000001 Q 1.30804248046875 1.0845000000000002 1.26904248046875 1.0612500000000002 Q 1.23004248046875 1.0380000000000003 1.20529248046875 0.9937500000000002 Q 1.18054248046875 0.9495000000000002 1.18054248046875 0.8805000000000003 Q 1.18054248046875 0.7980000000000003 1.21654248046875 0.7440000000000002 Q 1.25254248046875 0.6900000000000002 1.31929248046875 0.6592500000000002 Q 1.38604248046875 0.6285000000000003 1.47904248046875 0.6165000000000003 Q 1.57204248046875 0.6045000000000003 1.68454248046875 0.6045000000000003 L 1.68454248046875 0.5460000000000003 Q 1.68454248046875 0.5115000000000002 1.6732924804687501 0.4860000000000002 Q 1.6620424804687501 0.46050000000000024 1.63429248046875 0.44550000000000023 Q 1.60654248046875 0.4305000000000002 1.55704248046875 0.4305000000000002 Q 1.50754248046875 0.4305000000000002 1.47679248046875 0.4425000000000002 Q 1.44604248046875 0.45450000000000024 1.43329248046875 0.4732500000000003 Q 1.4205424804687499 0.4920000000000002 1.4205424804687499 0.5145000000000002 L 1.4205424804687499 0.5325000000000002 L 1.21804248046875 0.5325000000000002 Q 1.21654248046875 0.5250000000000002 1.21654248046875 0.5182500000000002 Q 1.21654248046875 0.5115000000000002 1.21654248046875 0.5010000000000002 Q 1.21654248046875 0.4320000000000003 1.25854248046875 0.38175000000000026 Q 1.30054248046875 0.33150000000000024 1.37704248046875 0.3045000000000002 Q 1.45354248046875 0.2775000000000002 1.55554248046875 0.2775000000000002 Q 1.66504248046875 0.2775000000000002 1.73929248046875 0.30600000000000027 Q 1.81354248046875 0.33450000000000024 1.85329248046875 0.39000000000000024 Q 1.89304248046875 0.44550000000000023 1.89304248046875 0.5295000000000002 L 1.89304248046875 0.8880000000000002 Q 1.89304248046875 0.9150000000000003 1.9087924804687502 0.9277500000000003 Q 1.9245424804687499 0.9405000000000002 1.9440424804687502 0.9405000000000002 L 1.99354248046875 0.9405000000000002 L 1.99354248046875 1.0770000000000002 Q 1.9785424804687501 1.0845000000000002 1.94704248046875 1.0927500000000003 Q 1.91554248046875 1.1010000000000002 1.87054248046875 1.1010000000000002 Q 1.8270424804687502 1.1010000000000002 1.79329248046875 1.0882500000000002 Q 1.75954248046875 1.0755000000000003 1.7370424804687499 1.0522500000000004 Q 1.71454248046875 1.0290000000000001 1.70554248046875 0.9960000000000002 L 1.69504248046875 0.9960000000000002 Q 1.66954248046875 1.0275000000000003 1.63279248046875 1.0515000000000003 Q 1.59604248046875 1.0755000000000003 1.54729248046875 1.0890000000000002 Q 1.49854248046875 1.1025000000000003 1.43554248046875 1.1025000000000003 M 1.50604248046875 0.9450000000000003 Q 1.54804248046875 0.9450000000000003 1.58104248046875 0.9322500000000002 Q 1.61404248046875 0.9195000000000002 1.63654248046875 0.8977500000000003 Q 1.65904248046875 0.8760000000000002 1.67179248046875 0.8445000000000003 Q 1.68454248046875 0.8130000000000002 1.68454248046875 0.7770000000000002 L 1.68454248046875 0.7335000000000003 Q 1.60054248046875 0.7335000000000003 1.53454248046875 0.7447500000000002 Q 1.46854248046875 0.7560000000000002 1.43029248046875 0.7830000000000003 Q 1.3920424804687501 0.8100000000000003 1.3920424804687501 0.8580000000000002 Q 1.3920424804687501 0.8850000000000002 1.40554248046875 0.9045000000000003 Q 1.41904248046875 0.9240000000000003 1.44454248046875 0.9345000000000002 Q 1.47004248046875 0.9450000000000003 1.50604248046875 0.9450000000000003 M 2.097068115234375 1.0845000000000002 L 2.097068115234375 0.2955000000000002 L 2.269568115234375 0.2955000000000002 L 2.286068115234375 0.4185000000000002 L 2.296568115234375 0.4185000000000002 Q 2.311568115234375 0.3795000000000003 2.3355681152343752 0.3472500000000003 Q 2.359568115234375 0.3150000000000003 2.395568115234375 0.2955000000000002 Q 2.431568115234375 0.27600000000000025 2.479568115234375 0.27600000000000025 Q 2.505068115234375 0.27600000000000025 2.526068115234375 0.2812500000000002 Q 2.5470681152343753 0.2865000000000002 2.5575681152343748 0.29100000000000026 L 2.5575681152343748 0.4800000000000002 L 2.493068115234375 0.4800000000000002 Q 2.446568115234375 0.4800000000000002 2.411318115234375 0.49275000000000024 Q 2.376068115234375 0.5055000000000003 2.352068115234375 0.5325000000000002 Q 2.328068115234375 0.5595000000000002 2.316818115234375 0.5985000000000003 Q 2.305568115234375 0.6375000000000002 2.305568115234375 0.6900000000000002 L 2.305568115234375 1.0845000000000002 L 2.097068115234375 1.0845000000000002 M 2.871075439453125 1.0845000000000002 L 2.577075439453125 0.2955000000000002 L 2.797575439453125 0.2955000000000002 L 2.913075439453125 0.6285000000000003 Q 2.922075439453125 0.6540000000000002 2.934825439453125 0.6960000000000002 Q 2.947575439453125 0.7380000000000002 2.961075439453125 0.7845000000000002 Q 2.974575439453125 0.8310000000000002 2.983575439453125 0.8685000000000003 L 2.991075439453125 0.8685000000000003 Q 3.001575439453125 0.8340000000000003 3.013575439453125 0.7882500000000002 Q 3.025575439453125 0.7425000000000002 3.038325439453125 0.6997500000000003 Q 3.051075439453125 0.6570000000000003 3.060075439453125 0.6285000000000003 L 3.175575439453125 0.2955000000000002 L 3.385575439453125 0.2955000000000002 L 3.090075439453125 1.0845000000000002 L 2.871075439453125 1.0845000000000002 M 3.846071044921875 1.1025000000000003 Q 3.715571044921875 1.1025000000000003 3.627071044921875 1.0582500000000001 Q 3.538571044921875 1.0140000000000002 3.493571044921875 0.9225000000000002 Q 3.448571044921875 0.8310000000000002 3.448571044921875 0.6900000000000002 Q 3.448571044921875 0.5475000000000002 3.493571044921875 0.4567500000000002 Q 3.538571044921875 0.3660000000000002 3.626321044921875 0.3217500000000002 Q 3.714071044921875 0.2775000000000002 3.841571044921875 0.2775000000000002 Q 3.9615710449218753 0.2775000000000002 4.044071044921875 0.32025000000000026 Q 4.126571044921875 0.3630000000000002 4.168571044921875 0.45225000000000026 Q 4.210571044921875 0.5415000000000002 4.210571044921875 0.6825000000000002 L 4.210571044921875 0.7365000000000002 L 3.660071044921875 0.7365000000000002 Q 3.663071044921875 0.8055000000000002 3.681821044921875 0.8535000000000003 Q 3.700571044921875 0.9015000000000002 3.740321044921875 0.9247500000000002 Q 3.780071044921875 0.9480000000000002 3.846071044921875 0.9480000000000002 Q 3.882071044921875 0.9480000000000002 3.911321044921875 0.9390000000000003 Q 3.940571044921875 0.9300000000000003 3.9615710449218753 0.9120000000000003 Q 3.982571044921875 0.8940000000000002 3.9945710449218748 0.8670000000000002 Q 4.006571044921875 0.8400000000000003 4.006571044921875 0.8055000000000002 L 4.210571044921875 0.8055000000000002 Q 4.210571044921875 0.8805000000000003 4.183571044921875 0.9360000000000003 Q 4.156571044921875 0.9915000000000003 4.108571044921875 1.0282500000000003 Q 4.0605710449218755 1.0650000000000002 3.993821044921875 1.0837500000000002 Q 3.927071044921875 1.1025000000000003 3.846071044921875 1.1025000000000003 M 3.663071044921875 0.6045000000000003 L 3.996071044921875 0.6045000000000003 Q 3.996071044921875 0.5595000000000002 3.9848210449218753 0.5265000000000002 Q 3.973571044921875 0.49350000000000027 3.954071044921875 0.47250000000000025 Q 3.934571044921875 0.45150000000000023 3.906821044921875 0.4417500000000002 Q 3.879071044921875 0.4320000000000003 3.844571044921875 0.4320000000000003 Q 3.787571044921875 0.4320000000000003 3.7493210449218752 0.4507500000000002 Q 3.711071044921875 0.46950000000000025 3.690821044921875 0.5077500000000003 Q 3.670571044921875 0.5460000000000003 3.663071044921875 0.6045000000000003 M 4.683047607421875 1.1025000000000003 Q 4.600547607421875 1.1025000000000003 4.534547607421875 1.0845000000000002 Q 4.468547607421875 1.0665000000000002 4.422047607421875 1.0342500000000003 Q 4.375547607421875 1.0020000000000002 4.350797607421875 0.9570000000000003 Q 4.326047607421875 0.9120000000000003 4.326047607421875 0.8550000000000002 Q 4.326047607421875 0.8490000000000002 4.326047607421875 0.8430000000000002 Q 4.326047607421875 0.8370000000000002 4.327547607421875 0.8340000000000003 L 4.528547607421875 0.8340000000000003 Q 4.528547607421875 0.8370000000000002 4.528547607421875 0.8400000000000003 Q 4.528547607421875 0.8430000000000002 4.528547607421875 0.8460000000000002 Q 4.530047607421875 0.8835000000000002 4.552547607421875 0.9067500000000003 Q 4.575047607421875 0.9300000000000003 4.611797607421875 0.9405000000000002 Q 4.648547607421875 0.9510000000000003 4.689047607421875 0.9510000000000003 Q 4.725047607421875 0.9510000000000003 4.758797607421875 0.9442500000000003 Q 4.792547607421875 0.9375000000000002 4.815797607421875 0.9195000000000002 Q 4.839047607421875 0.9015000000000002 4.839047607421875 0.8730000000000002 Q 4.839047607421875 0.8370000000000002 4.809797607421875 0.8175000000000002 Q 4.780547607421875 0.7980000000000003 4.733297607421875 0.7860000000000003 Q 4.686047607421875 0.7740000000000002 4.6305476074218745 0.7590000000000002 Q 4.579547607421875 0.7470000000000002 4.528547607421875 0.7312500000000002 Q 4.477547607421875 0.7155000000000002 4.436297607421875 0.6900000000000002 Q 4.395047607421875 0.6645000000000003 4.369547607421875 0.6232500000000003 Q 4.344047607421875 0.5820000000000002 4.344047607421875 0.5190000000000002 Q 4.344047607421875 0.45750000000000024 4.371047607421875 0.4117500000000003 Q 4.398047607421875 0.3660000000000002 4.445297607421875 0.3360000000000002 Q 4.492547607421875 0.30600000000000027 4.556297607421875 0.2917500000000002 Q 4.620047607421875 0.2775000000000002 4.693547607421875 0.2775000000000002 Q 4.762547607421875 0.2775000000000002 4.822547607421875 0.2917500000000002 Q 4.882547607421875 0.30600000000000027 4.927547607421875 0.3337500000000002 Q 4.972547607421875 0.36150000000000027 4.998047607421875 0.4027500000000003 Q 5.023547607421875 0.4440000000000003 5.023547607421875 0.4950000000000002 Q 5.023547607421875 0.5055000000000003 5.023547607421875 0.5145000000000002 Q 5.023547607421875 0.5235000000000002 5.022047607421875 0.5265000000000002 L 4.822547607421875 0.5265000000000002 L 4.822547607421875 0.5145000000000002 Q 4.822547607421875 0.48750000000000027 4.806047607421875 0.4687500000000002 Q 4.789547607421875 0.4500000000000002 4.758797607421875 0.4395000000000002 Q 4.728047607421875 0.42900000000000027 4.684547607421875 0.42900000000000027 Q 4.6545476074218755 0.42900000000000027 4.629797607421875 0.4335000000000002 Q 4.605047607421875 0.4380000000000003 4.587047607421875 0.4470000000000002 Q 4.569047607421875 0.4560000000000002 4.559297607421875 0.4687500000000002 Q 4.549547607421875 0.48150000000000026 4.549547607421875 0.4995000000000003 Q 4.549547607421875 0.5250000000000002 4.571297607421875 0.5407500000000002 Q 4.593047607421875 0.5565000000000002 4.629047607421875 0.5670000000000003 Q 4.665047607421875 0.5775000000000002 4.708547607421875 0.5895000000000002 Q 4.762547607421875 0.6045000000000003 4.821797607421875 0.6187500000000002 Q 4.881047607421875 0.6330000000000002 4.932047607421875 0.6570000000000003 Q 4.9830476074218755 0.6810000000000003 5.014547607421875 0.7252500000000002 Q 5.046047607421875 0.7695000000000003 5.046047607421875 0.8445000000000003 Q 5.046047607421875 0.9165000000000002 5.018297607421875 0.9660000000000002 Q 4.990547607421875 1.0155000000000003 4.941047607421875 1.0455000000000003 Q 4.891547607421875 1.0755000000000003 4.825547607421875 1.0890000000000002 Q 4.759547607421875 1.1025000000000003 4.683047607421875 1.1025000000000003 M 5.43300146484375 1.1025000000000003 Q 5.35800146484375 1.1025000000000003 5.31150146484375 1.0755000000000003 Q 5.26500146484375 1.0485000000000002 5.24400146484375 1.0027500000000003 Q 5.22300146484375 0.9570000000000003 5.22300146484375 0.9015000000000002 L 5.22300146484375 0.4560000000000002 L 5.12550146484375 0.4560000000000002 L 5.12550146484375 0.2955000000000002 L 5.23050146484375 0.2955000000000002 L 5.26950146484375 0.07050000000000023 L 5.43150146484375 0.07050000000000023 L 5.43150146484375 0.2955000000000002 L 5.57550146484375 0.2955000000000002 L 5.57550146484375 0.4560000000000002 L 5.43150146484375 0.4560000000000002 L 5.43150146484375 0.8670000000000002 Q 5.43150146484375 0.9030000000000002 5.44800146484375 0.9217500000000003 Q 5.4645014648437495 0.9405000000000002 5.50200146484375 0.9405000000000002 L 5.57550146484375 0.9405000000000002 L 5.57550146484375 1.0785000000000002 Q 5.55750146484375 1.0845000000000002 5.53350146484375 1.0897500000000002 Q 5.50950146484375 1.0950000000000002 5.48250146484375 1.0987500000000003 Q 5.45550146484375 1.1025000000000003 5.43300146484375 1.1025000000000003 M 6.004447265625 1.0845000000000002 L 6.004447265625 2.220446049250313e-16 L 6.212947265625 2.220446049250313e-16 L 6.212947265625 0.3825000000000002 L 6.223447265625 0.3825000000000002 Q 6.2489472656250005 0.3510000000000002 6.284197265625 0.3277500000000002 Q 6.319447265625 0.3045000000000002 6.363697265625 0.29100000000000026 Q 6.407947265625 0.2775000000000002 6.460447265625 0.2775000000000002 Q 6.538447265625 0.2775000000000002 6.596947265625 0.30600000000000027 Q 6.655447265625 0.33450000000000024 6.687697265625 0.39600000000000024 Q 6.719947265625 0.45750000000000024 6.719947265625 0.5565000000000002 L 6.719947265625 1.0845000000000002 L 6.511447265625 1.0845000000000002 L 6.511447265625 0.5895000000000002 Q 6.511447265625 0.5520000000000003 6.502447265625 0.5257500000000003 Q 6.493447265625 0.4995000000000003 6.476197265625 0.4822500000000002 Q 6.4589472656249995 0.4650000000000002 6.433447265625 0.45750000000000024 Q 6.407947265625 0.4500000000000002 6.376447265625 0.4500000000000002 Q 6.329947265625 0.4500000000000002 6.292447265625 0.47250000000000025 Q 6.254947265625 0.4950000000000002 6.233947265625 0.5340000000000003 Q 6.212947265625 0.5730000000000002 6.212947265625 0.6240000000000002 L 6.212947265625 1.0845000000000002 L 6.004447265625 1.0845000000000002 M 7.162431884765625 1.1025000000000003 Q 7.042431884765625 1.1025000000000003 6.971931884765625 1.0365000000000002 Q 6.901431884765625 0.9705000000000003 6.901431884765625 0.8235000000000002 L 6.901431884765625 0.2955000000000002 L 7.109931884765625 0.2955000000000002 L 7.109931884765625 0.7890000000000003 Q 7.109931884765625 0.8280000000000003 7.118931884765625 0.8542500000000002 Q 7.127931884765625 0.8805000000000003 7.145181884765625 0.8970000000000002 Q 7.162431884765625 0.9135000000000002 7.187931884765625 0.9210000000000003 Q 7.213431884765625 0.9285000000000002 7.244931884765625 0.9285000000000002 Q 7.291431884765625 0.9285000000000002 7.328931884765625 0.9060000000000002 Q 7.366431884765625 0.8835000000000002 7.3874318847656255 0.8437500000000002 Q 7.4084318847656245 0.8040000000000003 7.4084318847656245 0.7545000000000002 L 7.4084318847656245 0.2955000000000002 L 7.616931884765625 0.2955000000000002 L 7.616931884765625 1.0845000000000002 L 7.445931884765625 1.0845000000000002 L 7.430931884765625 0.9765000000000003 L 7.420431884765625 0.9765000000000003 Q 7.391931884765625 1.0140000000000002 7.353681884765625 1.0425000000000002 Q 7.315431884765625 1.0710000000000002 7.267431884765625 1.0867500000000003 Q 7.219431884765625 1.1025000000000003 7.162431884765625 1.1025000000000003 M 8.24995166015625 1.1025000000000003 Q 8.17345166015625 1.1025000000000003 8.10970166015625 1.0717500000000002 Q 8.04595166015625 1.0410000000000001 8.00695166015625 0.9780000000000002 L 7.99645166015625 0.9780000000000002 L 7.97995166015625 1.0845000000000002 L 7.80895166015625 1.0845000000000002 L 7.80895166015625 2.220446049250313e-16 L 8.01745166015625 2.220446049250313e-16 L 8.01745166015625 0.3825000000000002 L 8.02645166015625 0.3825000000000002 Q 8.05045166015625 0.3480000000000002 8.08495166015625 0.3240000000000002 Q 8.11945166015625 0.30000000000000027 8.16295166015625 0.2887500000000002 Q 8.20645166015625 0.2775000000000002 8.25745166015625 0.2775000000000002 Q 8.35045166015625 0.2775000000000002 8.42020166015625 0.3210000000000002 Q 8.48995166015625 0.36450000000000027 8.52895166015625 0.45525000000000027 Q 8.56795166015625 0.5460000000000003 8.56795166015625 0.6885000000000002 Q 8.56795166015625 0.8310000000000002 8.52970166015625 0.9225000000000002 Q 8.49145166015625 1.0140000000000002 8.42020166015625 1.0582500000000001 Q 8.34895166015625 1.1025000000000003 8.24995166015625 1.1025000000000003 M 8.18545166015625 0.9315000000000002 Q 8.24845166015625 0.9315000000000002 8.28520166015625 0.9067500000000003 Q 8.32195166015625 0.8820000000000002 8.33845166015625 0.8325000000000002 Q 8.35495166015625 0.7830000000000003 8.35495166015625 0.7080000000000002 L 8.35495166015625 0.6735000000000002 Q 8.35495166015625 0.5985000000000003 8.33845166015625 0.5482500000000002 Q 8.32195166015625 0.4980000000000002 8.28520166015625 0.4732500000000003 Q 8.24845166015625 0.44850000000000023 8.18545166015625 0.44850000000000023 Q 8.14045166015625 0.44850000000000023 8.10895166015625 0.4642500000000003 Q 8.07745166015625 0.4800000000000002 8.05720166015625 0.5092500000000002 Q 8.03695166015625 0.5385000000000002 8.02645166015625 0.5820000000000002 Q 8.01595166015625 0.6255000000000002 8.01595166015625 0.6780000000000002 L 8.01595166015625 0.7050000000000003 Q 8.01595166015625 0.7755000000000003 8.03395166015625 0.8265000000000002 Q 8.05195166015625 0.8775000000000002 8.08945166015625 0.9045000000000003 Q 8.12695166015625 0.9315000000000002 8.18545166015625 0.9315000000000002" fill="#3f170e" fill-rule="nonzero"></path></g><g><path d=" M 0.0525 1.4795625000000003 L 0.21225 1.4795625000000003 Q 0.3045 1.4795625000000003 0.355875 1.5433125000000003 Q 0.40725 1.6070625000000003 0.40725 1.7293125000000003 Q 0.40725 1.8598125000000003 0.35625 1.9269375000000002 Q 0.30525 1.9940625000000003 0.21225 1.9940625000000003 L 0.0525 1.9940625000000003 L 0.0525 1.4795625000000003 M 0.20625000000000002 1.9340625000000002 Q 0.2685 1.9340625000000002 0.303375 1.8871875000000002 Q 0.33825 1.8403125000000002 0.33825 1.7480625000000003 L 0.33825 1.7105625000000002 Q 0.33825 1.6265625000000004 0.303375 1.5830625000000003 Q 0.2685 1.5395625000000002 0.20625000000000002 1.5395625000000002 L 0.11850000000000001 1.5395625000000002 L 0.11850000000000001 1.9340625000000002 L 0.20625000000000002 1.9340625000000002 M 0.4901099853515624 1.5995625000000002 L 0.5366099853515625 1.5995625000000002 L 0.5448599853515624 1.6513125000000004 L 0.5493599853515624 1.6513125000000004 Q 0.5576099853515625 1.6250625000000003 0.5741099853515624 1.6078125000000003 Q 0.5906099853515624 1.5905625000000003 0.6161099853515625 1.5905625000000003 Q 0.6266099853515624 1.5905625000000003 0.6348599853515624 1.5931875000000004 Q 0.6431099853515625 1.5958125000000003 0.6453599853515625 1.5965625000000003 L 0.6453599853515625 1.6603125000000003 L 0.6251099853515625 1.6603125000000003 Q 0.5928599853515624 1.6603125000000003 0.5722349853515625 1.6824375000000003 Q 0.5516099853515625 1.7045625000000002 0.5516099853515625 1.7533125000000003 L 0.5516099853515625 1.9940625000000003 L 0.4901099853515624 1.9940625000000003 L 0.4901099853515624 1.5995625000000002 M 0.6884926757812498 1.4518125000000004 L 0.7499926757812498 1.4518125000000004 L 0.7499926757812498 1.5253125000000003 L 0.6884926757812498 1.5253125000000003 L 0.6884926757812498 1.4518125000000004 M 0.6884926757812498 1.5995625000000002 L 0.7499926757812498 1.5995625000000002 L 0.7499926757812498 1.9940625000000003 L 0.6884926757812498 1.9940625000000003 L 0.6884926757812498 1.5995625000000002 M 0.7961228027343749 1.5995625000000002 L 0.8636228027343749 1.5995625000000002 L 0.9168728027343749 1.7998125000000003 L 0.9438728027343749 1.8995625000000003 L 0.9468728027343749 1.8995625000000003 L 0.9738728027343749 1.7975625000000002 L 1.0271228027343748 1.5995625000000002 L 1.089372802734375 1.5995625000000002 L 0.9761228027343749 1.9940625000000003 L 0.9093728027343749 1.9940625000000003 L 0.7961228027343749 1.5995625000000002 M 1.1658526611328124 1.9539375000000003 Q 1.1287276611328125 1.9048125000000002 1.1287276611328125 1.7968125000000004 Q 1.1287276611328125 1.6910625000000004 1.1654776611328124 1.6408125000000002 Q 1.2022276611328124 1.5905625000000003 1.2772276611328124 1.5905625000000003 Q 1.3432276611328124 1.5905625000000003 1.3751026611328125 1.6344375000000002 Q 1.4069776611328124 1.6783125000000003 1.4069776611328124 1.7758125000000002 L 1.4069776611328124 1.8148125000000004 L 1.1932276611328125 1.8148125000000004 Q 1.1939776611328123 1.8838125000000003 1.2146026611328125 1.9160625000000002 Q 1.2352276611328126 1.9483125000000003 1.2794776611328125 1.9483125000000003 Q 1.3094776611328125 1.9483125000000003 1.3278526611328125 1.9243125000000003 Q 1.3462276611328123 1.9003125000000003 1.3462276611328123 1.8598125000000003 L 1.4069776611328124 1.8598125000000003 Q 1.4069776611328124 1.9258125000000004 1.3713526611328124 1.9644375000000003 Q 1.3357276611328124 2.0030625000000004 1.2779776611328124 2.0030625000000004 Q 1.2029776611328125 2.0030625000000004 1.1658526611328124 1.9539375000000003 M 1.3424776611328124 1.7600625000000003 Q 1.3424776611328124 1.7038125000000002 1.3259776611328125 1.6745625000000004 Q 1.3094776611328125 1.6453125000000002 1.2772276611328124 1.6453125000000002 Q 1.2374776611328124 1.6453125000000002 1.2176026611328123 1.6734375000000004 Q 1.1977276611328125 1.7015625000000003 1.1939776611328123 1.7600625000000003 L 1.3424776611328124 1.7600625000000003 M 1.485347900390625 1.5995625000000002 L 1.531847900390625 1.5995625000000002 L 1.540097900390625 1.6453125000000002 L 1.544597900390625 1.6453125000000002 Q 1.575347900390625 1.5905625000000003 1.639847900390625 1.5905625000000003 Q 1.687097900390625 1.5905625000000003 1.712222900390625 1.6186875000000003 Q 1.737347900390625 1.6468125000000002 1.737347900390625 1.7098125000000004 L 1.737347900390625 1.9940625000000003 L 1.675847900390625 1.9940625000000003 L 1.675847900390625 1.7143125000000003 Q 1.675847900390625 1.6760625000000002 1.661597900390625 1.6606875000000003 Q 1.647347900390625 1.6453125000000002 1.620347900390625 1.6453125000000002 Q 1.589597900390625 1.6453125000000002 1.568222900390625 1.6745625000000004 Q 1.546847900390625 1.7038125000000002 1.546847900390625 1.7533125000000003 L 1.546847900390625 1.9940625000000003 L 1.485347900390625 1.9940625000000003 L 1.485347900390625 1.5995625000000002 M 2.0163636474609374 1.9756875000000003 Q 1.9998636474609375 1.9498125000000004 1.9998636474609375 1.9108125000000002 L 1.9998636474609375 1.6543125000000003 L 1.9661136474609375 1.6543125000000003 L 1.9661136474609375 1.5995625000000002 L 1.9998636474609375 1.5995625000000002 L 2.0133636474609378 1.4900625000000003 L 2.0613636474609374 1.4900625000000003 L 2.0613636474609374 1.5995625000000002 L 2.1146136474609376 1.5995625000000002 L 2.1146136474609376 1.6543125000000003 L 2.0613636474609374 1.6543125000000003 L 2.0613636474609374 1.9123125000000003 Q 2.0613636474609374 1.9483125000000003 2.096613647460938 1.9483125000000003 L 2.1146136474609376 1.9483125000000003 L 2.1146136474609376 1.9910625000000004 Q 2.1063636474609377 1.9955625000000003 2.0939886474609377 1.9985625000000002 Q 2.0816136474609377 2.0015625000000004 2.0703636474609377 2.0015625000000004 Q 2.0328636474609376 2.0015625000000004 2.0163636474609374 1.9756875000000003 M 2.193384155273437 1.9524375000000003 Q 2.157759155273437 1.9018125000000003 2.157759155273437 1.7968125000000004 Q 2.157759155273437 1.6918125000000002 2.193384155273437 1.6411875000000002 Q 2.2290091552734372 1.5905625000000003 2.298759155273437 1.5905625000000003 Q 2.368509155273437 1.5905625000000003 2.404134155273437 1.6411875000000002 Q 2.4397591552734372 1.6918125000000002 2.4397591552734372 1.7968125000000004 Q 2.4397591552734372 1.9018125000000003 2.404134155273437 1.9524375000000003 Q 2.368509155273437 2.0030625000000004 2.298759155273437 2.0030625000000004 Q 2.2290091552734372 2.0030625000000004 2.193384155273437 1.9524375000000003 M 2.3752591552734375 1.8110625000000002 L 2.3752591552734375 1.7825625000000003 Q 2.3752591552734375 1.6453125000000002 2.298759155273437 1.6453125000000002 Q 2.2222591552734374 1.6453125000000002 2.2222591552734374 1.7825625000000003 L 2.2222591552734374 1.8110625000000002 Q 2.2222591552734374 1.9483125000000003 2.298759155273437 1.9483125000000003 Q 2.3752591552734375 1.9483125000000003 2.3752591552734375 1.8110625000000002 M 2.68802490234375 1.5995625000000002 L 2.73452490234375 1.5995625000000002 L 2.7427749023437498 1.6453125000000002 L 2.74727490234375 1.6453125000000002 Q 2.77802490234375 1.5905625000000003 2.84252490234375 1.5905625000000003 Q 2.88977490234375 1.5905625000000003 2.91489990234375 1.6186875000000003 Q 2.94002490234375 1.6468125000000002 2.94002490234375 1.7098125000000004 L 2.94002490234375 1.9940625000000003 L 2.87852490234375 1.9940625000000003 L 2.87852490234375 1.7143125000000003 Q 2.87852490234375 1.6760625000000002 2.86427490234375 1.6606875000000003 Q 2.85002490234375 1.6453125000000002 2.82302490234375 1.6453125000000002 Q 2.79227490234375 1.6453125000000002 2.77089990234375 1.6745625000000004 Q 2.74952490234375 1.7038125000000002 2.74952490234375 1.7533125000000003 L 2.74952490234375 1.9940625000000003 L 2.68802490234375 1.9940625000000003 L 2.68802490234375 1.5995625000000002 M 3.0431451416015625 1.9790625000000004 Q 3.0116451416015626 1.9550625000000004 3.0116451416015626 1.8920625000000002 Q 3.0116451416015626 1.8163125000000002 3.0630201416015623 1.7881875000000003 Q 3.1143951416015625 1.7600625000000003 3.2111451416015626 1.7600625000000003 L 3.2111451416015626 1.7090625000000004 Q 3.2111451416015626 1.6783125000000003 3.1976451416015625 1.6618125000000004 Q 3.1841451416015625 1.6453125000000002 3.1488951416015625 1.6453125000000002 Q 3.1166451416015626 1.6453125000000002 3.1023951416015625 1.6633125000000004 Q 3.0881451416015624 1.6813125000000002 3.0881451416015624 1.7075625000000003 L 3.0881451416015624 1.7165625000000002 L 3.0273951416015623 1.7165625000000002 Q 3.0266451416015627 1.7120625000000003 3.0266451416015627 1.7000625000000003 Q 3.0266451416015627 1.6475625000000003 3.0611451416015627 1.6190625000000003 Q 3.0956451416015627 1.5905625000000003 3.1533951416015626 1.5905625000000003 Q 3.2126451416015627 1.5905625000000003 3.2426451416015625 1.6190625000000003 Q 3.2726451416015627 1.6475625000000003 3.2726451416015627 1.7008125000000003 L 3.2726451416015627 1.9220625000000002 Q 3.2726451416015627 1.9348125000000003 3.2786451416015625 1.9415625000000003 Q 3.2846451416015627 1.9483125000000003 3.2936451416015626 1.9483125000000003 L 3.3176451416015627 1.9483125000000003 L 3.3176451416015627 1.9910625000000004 Q 3.3011451416015625 2.0000625000000003 3.2771451416015625 2.0000625000000003 Q 3.2531451416015624 2.0000625000000003 3.2370201416015627 1.9869375000000002 Q 3.2208951416015625 1.9738125000000002 3.2148951416015628 1.9513125000000002 L 3.2111451416015626 1.9513125000000002 Q 3.1961451416015625 1.9760625000000003 3.1710201416015624 1.9895625000000003 Q 3.1458951416015624 2.0030625000000004 3.1151451416015625 2.0030625000000004 Q 3.0746451416015623 2.0030625000000004 3.0431451416015625 1.9790625000000004 M 3.1683951416015623 1.9370625000000004 Q 3.1871451416015626 1.9258125000000004 3.1991451416015626 1.9036875000000002 Q 3.2111451416015626 1.8815625000000002 3.2111451416015626 1.8508125000000002 L 3.2111451416015626 1.8148125000000004 Q 3.1436451416015627 1.8148125000000004 3.1098951416015623 1.8301875000000003 Q 3.0761451416015624 1.8455625000000002 3.0761451416015624 1.8883125000000003 Q 3.0761451416015624 1.9205625000000004 3.0892701416015624 1.9344375000000003 Q 3.1023951416015625 1.9483125000000003 3.1293951416015626 1.9483125000000003 Q 3.1496451416015625 1.9483125000000003 3.1683951416015623 1.9370625000000004 M 3.336765380859375 1.5995625000000002 L 3.4042653808593752 1.5995625000000002 L 3.457515380859375 1.7998125000000003 L 3.484515380859375 1.8995625000000003 L 3.4875153808593753 1.8995625000000003 L 3.514515380859375 1.7975625000000002 L 3.5677653808593752 1.5995625000000002 L 3.630015380859375 1.5995625000000002 L 3.516765380859375 1.9940625000000003 L 3.450015380859375 1.9940625000000003 L 3.336765380859375 1.5995625000000002 M 3.6753702392578127 1.4518125000000004 L 3.736870239257813 1.4518125000000004 L 3.736870239257813 1.5253125000000003 L 3.6753702392578127 1.5253125000000003 L 3.6753702392578127 1.4518125000000004 M 3.6753702392578127 1.5995625000000002 L 3.736870239257813 1.5995625000000002 L 3.736870239257813 1.9940625000000003 L 3.6753702392578127 1.9940625000000003 L 3.6753702392578127 1.5995625000000002 M 3.8107503662109377 2.1039375000000002 Q 3.7852503662109376 2.0773125 3.7852503662109376 2.0368125000000004 Q 3.7852503662109376 2.0075625 3.7991253662109377 1.9846875000000004 Q 3.8130003662109377 1.9618125000000002 3.8362503662109377 1.9528125000000003 Q 3.8212503662109376 1.9430625000000004 3.8126253662109377 1.9273125000000002 Q 3.804000366210938 1.9115625000000003 3.804000366210938 1.8935625000000003 Q 3.804000366210938 1.8703125000000003 3.8190003662109375 1.8523125000000003 Q 3.8340003662109376 1.8343125000000002 3.8595003662109377 1.8253125000000003 Q 3.8137503662109378 1.7878125000000002 3.8137503662109378 1.7233125000000002 Q 3.8137503662109378 1.6610625000000003 3.8482503662109377 1.6258125000000003 Q 3.8827503662109377 1.5905625000000003 3.9427503662109378 1.5905625000000003 Q 3.9735003662109376 1.5905625000000003 3.9997503662109377 1.6048125000000004 Q 4.023750366210938 1.5920625000000004 4.034625366210937 1.5748125000000002 Q 4.045500366210938 1.5575625000000004 4.048500366210938 1.5358125000000002 L 4.102500366210938 1.5358125000000002 Q 4.102500366210938 1.5718125000000003 4.084875366210937 1.5973125000000004 Q 4.067250366210938 1.6228125000000002 4.036500366210937 1.6303125000000003 Q 4.071750366210938 1.6670625000000003 4.071750366210938 1.7233125000000002 Q 4.071750366210938 1.7840625000000003 4.037625366210937 1.8196875000000003 Q 4.003500366210938 1.8553125000000004 3.9457503662109374 1.8560625000000002 L 3.9045003662109377 1.8560625000000002 Q 3.8895003662109375 1.8560625000000002 3.8790003662109376 1.8661875000000003 Q 3.8685003662109376 1.8763125000000003 3.8685003662109376 1.8913125000000002 Q 3.8685003662109376 1.9055625000000003 3.8790003662109376 1.9160625000000002 Q 3.8895003662109375 1.9265625000000002 3.9045003662109377 1.9265625000000002 L 4.0170003662109375 1.9265625000000002 Q 4.059000366210937 1.9265625000000002 4.084500366210937 1.9531875000000003 Q 4.1100003662109375 1.9798125000000002 4.1100003662109375 2.0188125 Q 4.1100003662109375 2.0675625 4.079625366210937 2.0990625000000005 Q 4.049250366210938 2.1305625000000004 3.9945003662109375 2.1305625000000004 L 3.8827503662109377 2.1305625000000004 Q 3.8362503662109377 2.1305625000000004 3.8107503662109377 2.1039375000000002 M 3.991875366210938 1.7833125000000003 Q 4.009500366210938 1.7615625000000004 4.009500366210938 1.7233125000000002 Q 4.009500366210938 1.6835625000000003 3.991875366210938 1.6625625000000004 Q 3.9742503662109376 1.6415625000000003 3.9420003662109377 1.6415625000000003 Q 3.909750366210938 1.6415625000000003 3.8925003662109376 1.6633125000000004 Q 3.8752503662109374 1.6850625000000004 3.8752503662109374 1.7233125000000002 Q 3.8752503662109374 1.7630625000000002 3.8925003662109376 1.7840625000000003 Q 3.909750366210938 1.8050625000000002 3.9420003662109377 1.8050625000000002 Q 3.9742503662109376 1.8050625000000002 3.991875366210938 1.7833125000000003 M 4.001250366210938 2.0773125 Q 4.020750366210938 2.0773125 4.034250366210937 2.0638125000000005 Q 4.047750366210938 2.0503125000000004 4.047750366210938 2.0308125 Q 4.047750366210938 2.0105625000000003 4.035750366210937 1.9978125000000002 Q 4.023750366210938 1.9850625000000004 4.001250366210938 1.9850625000000004 L 3.8925003662109376 1.9850625000000004 Q 3.8700003662109377 1.9850625000000004 3.8583753662109377 1.9978125000000002 Q 3.8467503662109377 2.0105625000000003 3.8467503662109377 2.0308125 Q 3.8467503662109377 2.0510625000000005 3.8587503662109377 2.0641875000000005 Q 3.8707503662109377 2.0773125 3.8925003662109376 2.0773125 L 4.001250366210938 2.0773125 M 4.175620605468751 1.9790625000000004 Q 4.144120605468751 1.9550625000000004 4.144120605468751 1.8920625000000002 Q 4.144120605468751 1.8163125000000002 4.195495605468751 1.7881875000000003 Q 4.246870605468751 1.7600625000000003 4.34362060546875 1.7600625000000003 L 4.34362060546875 1.7090625000000004 Q 4.34362060546875 1.6783125000000003 4.330120605468751 1.6618125000000004 Q 4.316620605468751 1.6453125000000002 4.281370605468751 1.6453125000000002 Q 4.24912060546875 1.6453125000000002 4.234870605468751 1.6633125000000004 Q 4.220620605468751 1.6813125000000002 4.220620605468751 1.7075625000000003 L 4.220620605468751 1.7165625000000002 L 4.15987060546875 1.7165625000000002 Q 4.15912060546875 1.7120625000000003 4.15912060546875 1.7000625000000003 Q 4.15912060546875 1.6475625000000003 4.193620605468751 1.6190625000000003 Q 4.22812060546875 1.5905625000000003 4.285870605468751 1.5905625000000003 Q 4.34512060546875 1.5905625000000003 4.375120605468751 1.6190625000000003 Q 4.405120605468751 1.6475625000000003 4.405120605468751 1.7008125000000003 L 4.405120605468751 1.9220625000000002 Q 4.405120605468751 1.9348125000000003 4.411120605468751 1.9415625000000003 Q 4.41712060546875 1.9483125000000003 4.426120605468751 1.9483125000000003 L 4.450120605468751 1.9483125000000003 L 4.450120605468751 1.9910625000000004 Q 4.433620605468751 2.0000625000000003 4.409620605468751 2.0000625000000003 Q 4.385620605468751 2.0000625000000003 4.36949560546875 1.9869375000000002 Q 4.353370605468751 1.9738125000000002 4.34737060546875 1.9513125000000002 L 4.34362060546875 1.9513125000000002 Q 4.328620605468751 1.9760625000000003 4.3034956054687505 1.9895625000000003 Q 4.2783706054687505 2.0030625000000004 4.24762060546875 2.0030625000000004 Q 4.20712060546875 2.0030625000000004 4.175620605468751 1.9790625000000004 M 4.30087060546875 1.9370625000000004 Q 4.31962060546875 1.9258125000000004 4.331620605468751 1.9036875000000002 Q 4.34362060546875 1.8815625000000002 4.34362060546875 1.8508125000000002 L 4.34362060546875 1.8148125000000004 Q 4.27612060546875 1.8148125000000004 4.242370605468751 1.8301875000000003 Q 4.2086206054687505 1.8455625000000002 4.2086206054687505 1.8883125000000003 Q 4.2086206054687505 1.9205625000000004 4.221745605468751 1.9344375000000003 Q 4.234870605468751 1.9483125000000003 4.261870605468751 1.9483125000000003 Q 4.282120605468751 1.9483125000000003 4.30087060546875 1.9370625000000004 M 4.522490844726563 1.9756875000000003 Q 4.505990844726563 1.9498125000000004 4.505990844726563 1.9108125000000002 L 4.505990844726563 1.6543125000000003 L 4.472240844726564 1.6543125000000003 L 4.472240844726564 1.5995625000000002 L 4.505990844726563 1.5995625000000002 L 4.519490844726564 1.4900625000000003 L 4.567490844726563 1.4900625000000003 L 4.567490844726563 1.5995625000000002 L 4.620740844726563 1.5995625000000002 L 4.620740844726563 1.6543125000000003 L 4.567490844726563 1.6543125000000003 L 4.567490844726563 1.9123125000000003 Q 4.567490844726563 1.9483125000000003 4.602740844726563 1.9483125000000003 L 4.620740844726563 1.9483125000000003 L 4.620740844726563 1.9910625000000004 Q 4.612490844726564 1.9955625000000003 4.600115844726563 1.9985625000000002 Q 4.5877408447265635 2.0015625000000004 4.576490844726563 2.0015625000000004 Q 4.5389908447265634 2.0015625000000004 4.522490844726563 1.9756875000000003 M 4.702511352539063 1.9539375000000003 Q 4.6653863525390635 1.9048125000000002 4.6653863525390635 1.7968125000000004 Q 4.6653863525390635 1.6910625000000004 4.702136352539063 1.6408125000000002 Q 4.738886352539064 1.5905625000000003 4.813886352539063 1.5905625000000003 Q 4.879886352539064 1.5905625000000003 4.911761352539063 1.6344375000000002 Q 4.943636352539063 1.6783125000000003 4.943636352539063 1.7758125000000002 L 4.943636352539063 1.8148125000000004 L 4.729886352539063 1.8148125000000004 Q 4.730636352539063 1.8838125000000003 4.751261352539063 1.9160625000000002 Q 4.771886352539063 1.9483125000000003 4.816136352539063 1.9483125000000003 Q 4.846136352539063 1.9483125000000003 4.864511352539063 1.9243125000000003 Q 4.882886352539063 1.9003125000000003 4.882886352539063 1.8598125000000003 L 4.943636352539063 1.8598125000000003 Q 4.943636352539063 1.9258125000000004 4.908011352539063 1.9644375000000003 Q 4.872386352539063 2.0030625000000004 4.814636352539063 2.0030625000000004 Q 4.739636352539063 2.0030625000000004 4.702511352539063 1.9539375000000003 M 4.879136352539064 1.7600625000000003 Q 4.879136352539064 1.7038125000000002 4.862636352539063 1.6745625000000004 Q 4.846136352539063 1.6453125000000002 4.813886352539063 1.6453125000000002 Q 4.774136352539063 1.6453125000000002 4.754261352539063 1.6734375000000004 Q 4.7343863525390635 1.7015625000000003 4.730636352539063 1.7600625000000003 L 4.879136352539064 1.7600625000000003 M 5.1866520996093755 1.4518125000000004 L 5.248152099609376 1.4518125000000004 L 5.248152099609376 1.9940625000000003 L 5.1866520996093755 1.9940625000000003 L 5.1866520996093755 1.4518125000000004 M 5.3242822265625005 1.4518125000000004 L 5.385782226562501 1.4518125000000004 L 5.385782226562501 1.5253125000000003 L 5.3242822265625005 1.5253125000000003 L 5.3242822265625005 1.4518125000000004 M 5.3242822265625005 1.5995625000000002 L 5.385782226562501 1.5995625000000002 L 5.385782226562501 1.9940625000000003 L 5.3242822265625005 1.9940625000000003 L 5.3242822265625005 1.5995625000000002 M 5.465662353515626 1.6543125000000003 L 5.431162353515626 1.6543125000000003 L 5.431162353515626 1.5995625000000002 L 5.465662353515626 1.5995625000000002 L 5.465662353515626 1.5365625000000003 Q 5.465662353515626 1.4975625000000004 5.4840373535156255 1.4716875000000003 Q 5.502412353515626 1.4458125000000002 5.543662353515626 1.4458125000000002 Q 5.569912353515626 1.4458125000000002 5.595412353515626 1.4548125000000003 L 5.595412353515626 1.4975625000000004 L 5.562412353515626 1.4975625000000004 Q 5.527162353515626 1.4975625000000004 5.527162353515626 1.5335625000000004 L 5.527162353515626 1.5995625000000002 L 5.595412353515626 1.5995625000000002 L 5.595412353515626 1.6543125000000003 L 5.527162353515626 1.6543125000000003 L 5.527162353515626 1.9940625000000003 L 5.465662353515626 1.9940625000000003 L 5.465662353515626 1.6543125000000003 M 5.665182861328126 1.9539375000000003 Q 5.628057861328126 1.9048125000000002 5.628057861328126 1.7968125000000004 Q 5.628057861328126 1.6910625000000004 5.664807861328126 1.6408125000000002 Q 5.701557861328126 1.5905625000000003 5.776557861328126 1.5905625000000003 Q 5.842557861328126 1.5905625000000003 5.874432861328126 1.6344375000000002 Q 5.906307861328126 1.6783125000000003 5.906307861328126 1.7758125000000002 L 5.906307861328126 1.8148125000000004 L 5.692557861328126 1.8148125000000004 Q 5.693307861328126 1.8838125000000003 5.713932861328126 1.9160625000000002 Q 5.734557861328126 1.9483125000000003 5.778807861328126 1.9483125000000003 Q 5.808807861328126 1.9483125000000003 5.827182861328126 1.9243125000000003 Q 5.845557861328126 1.9003125000000003 5.845557861328126 1.8598125000000003 L 5.906307861328126 1.8598125000000003 Q 5.906307861328126 1.9258125000000004 5.870682861328126 1.9644375000000003 Q 5.835057861328126 2.0030625000000004 5.777307861328126 2.0030625000000004 Q 5.7023078613281255 2.0030625000000004 5.665182861328126 1.9539375000000003 M 5.841807861328126 1.7600625000000003 Q 5.841807861328126 1.7038125000000002 5.825307861328126 1.6745625000000004 Q 5.808807861328126 1.6453125000000002 5.776557861328126 1.6453125000000002 Q 5.736807861328126 1.6453125000000002 5.716932861328126 1.6734375000000004 Q 5.697057861328126 1.7015625000000003 5.693307861328126 1.7600625000000003 L 5.841807861328126 1.7600625000000003" fill="#d56a34" fill-rule="nonzero"></path></g></g><defs><clipPath id="SvgjsClipPath1001"><path d=" M -5.515928185627485 -1.0943591438042932 h 5.115928185627484 v 4.1827807876085865 h -5.115928185627484 Z"></path></clipPath><clipPath id="SvgjsClipPath100028dc1863-a143-47e5-b12f-986078e5cdcb"><path d=" M -5.515928185627485 -1.0943591438042928 L -0.40000000000000036 -1.0943591438042928 L -0.40000000000000036 3.0884216438042924 L -5.515928185627485 3.0884216438042924 Z"></path></clipPath></defs></svg>